<svg xmlns="http://www.w3.org/2000/svg" viewBox="0 0 512 512" width="512" height="512">
  <defs>
    <linearGradient id="bgGrad" x1="0%" y1="0%" x2="100%" y2="100%">
      <stop offset="0%" stop-color="#4f46e5" />
      <stop offset="100%" stop-color="#3730a3" />
    </linearGradient>
  </defs>

  <!-- Background Squircle with Dark Neo-Brutalist Border -->
  <rect x="20" y="20" width="472" height="472" rx="118" fill="url(#bgGrad)" stroke="#0f172a" stroke-width="16" />

  <!-- Car Emblem (Center at 256, 256) -->
  <g transform="translate(52, 36) scale(17)" fill="none" stroke="#ffffff" stroke-width="2.4" stroke-linecap="round" stroke-linejoin="round">
    <path d="M19 17h2c.6 0 1-.4 1-1v-3c0-.9-.7-1.7-1.5-1.9C18.7 10.6 16 10 16 10s-1.3-1.4-2.2-2.3c-.5-.4-1.1-.7-1.8-.7H5c-.6 0-1.1.4-1.4.9l-1.5 2.8C2.1 10.7 2 11.3 2 12v4c0 .6.4 1 1 1h2" />
    <circle cx="7" cy="17" r="2.2" />
    <path d="M9.2 17h5.6" />
    <circle cx="17" cy="17" r="2.2" />
  </g>
</svg>